<svg id="Layer_1" data-name="Layer 1" xmlns="http://www.w3.org/2000/svg" viewBox="0 0 600 460"><defs><style>.cls-1,.cls-3,.cls-6,.cls-9{fill:none;}.cls-1{stroke:#3e4c70;stroke-linejoin:round;}.cls-1,.cls-3,.cls-9{stroke-linecap:round;}.cls-1,.cls-3,.cls-4,.cls-6,.cls-9{stroke-width:1.98px;}.cls-2{fill:#3e4c70;}.cls-3,.cls-7{stroke:#d62027;}.cls-3,.cls-4,.cls-6,.cls-7,.cls-9{stroke-miterlimit:10;}.cls-4{fill:#d62027;}.cls-4,.cls-6,.cls-9{stroke:#fff;}.cls-5,.cls-7{fill:#fff;}.cls-7{stroke-width:1.98px;}.cls-8{fill:#d40000;}</style></defs><title>zbx</title><rect class="cls-1" x="15.03" y="153.09" width="104" height="52" rx="6" ry="6"/><path class="cls-2" d="M36.71,172.59h4.46c2.69,0,4.46,1.43,4.46,3.81,0,2.57-2.14,3.9-4.68,3.9H38.06v4.2H36.71ZM41,179.07c2,0,3.27-1.05,3.27-2.65s-1.28-2.59-3.2-2.59h-3v5.24Z"/><path class="cls-2" d="M48.07,172.59H53.2a4.7,4.7,0,0,1,3.39,1.19,3.31,3.31,0,0,1,.92,2.38c0,2-1.36,3.13-3.23,3.47l3.66,4.87H56.27l-3.45-4.63h-3.4v4.63H48.07Zm5,6.07c1.79,0,3.06-.92,3.06-2.48s-1.12-2.35-3-2.35H49.42v4.83Z"/><path class="cls-2" d="M59.84,178.55a6.07,6.07,0,1,1,6.06,6.16A6,6,0,0,1,59.84,178.55Zm10.75,0a4.74,4.74,0,0,0-4.7-4.92,4.69,4.69,0,0,0-4.66,4.92,4.68,4.68,0,1,0,9.36,0Z"/><path class="cls-2" d="M77.65,178.43l-4.41-5.83h1.58l3.66,4.87,3.62-4.87h1.56l-4.41,5.82,4.58,6.09h-1.6l-3.81-5.12-3.81,5.12H73.08Z"/><path class="cls-2" d="M89.64,179.79l-5-7.2h1.63l4,6,4-6H96l-5,7.18v4.73H89.64Z"/><rect class="cls-1" x="252.03" y="139.65" width="110" height="84.89" rx="6" ry="6"/><path class="cls-2" d="M420,167.54a5,5,0,0,1,5-5.13,5.23,5.23,0,0,1,3.7,1.32l-.72.85a4.22,4.22,0,0,0-3-1.13,3.88,3.88,0,0,0-3.77,4.1,3.83,3.83,0,0,0,3.93,4.13,4.67,4.67,0,0,0,2.86-1v-2.47h-3v-1H429v4a6,6,0,0,1-4,1.52A4.87,4.87,0,0,1,420,167.54Z"/><path class="cls-2" d="M431.54,162.58h4.27a3.91,3.91,0,0,1,2.82,1,2.76,2.76,0,0,1,.77,2,2.9,2.9,0,0,1-2.69,2.89l3,4.05h-1.37l-2.88-3.86h-2.83v3.86h-1.12Zm4.17,5.06c1.49,0,2.55-.77,2.55-2.07s-.94-2-2.54-2h-3.06v4Z"/><path class="cls-2" d="M445.46,162.51h1l4.52,10h-1.2l-1.16-2.62h-5.4l-1.18,2.62h-1.15Zm2.76,6.37L446,163.81l-2.27,5.06Z"/><path class="cls-2" d="M453,162.58h1l6.25,8v-8h1.09v9.92h-.89l-6.41-8.14v8.14H453Z"/><path class="cls-2" d="M464,168.35v-5.77h1.12v5.7c0,2.14,1.13,3.35,3,3.35s3-1.11,3-3.27v-5.77h1.12v5.68c0,2.89-1.66,4.39-4.14,4.39S464,171.15,464,168.35Z"/><path class="cls-2" d="M474.94,162.58h1.12v8.89h5.58v1h-6.71Z"/><path class="cls-2" d="M487.39,162.51h1l4.52,10h-1.2l-1.16-2.62h-5.4L484,172.5h-1.15Zm2.76,6.37-2.25-5.06-2.27,5.06Z"/><path class="cls-2" d="M494.91,162.58h4.27a3.91,3.91,0,0,1,2.82,1,2.76,2.76,0,0,1,.77,2,2.9,2.9,0,0,1-2.69,2.89l3,4.05h-1.37l-2.88-3.86H496v3.86h-1.12Zm4.17,5.06c1.49,0,2.55-.77,2.55-2.07s-.94-2-2.54-2H496v4Z"/><path class="cls-2" d="M420.43,179.59h3.71c2.24,0,3.71,1.19,3.71,3.18,0,2.14-1.79,3.25-3.9,3.25h-2.41v3.5h-1.12ZM424,185c1.64,0,2.72-.88,2.72-2.21s-1.06-2.15-2.67-2.15h-2.51V185Z"/><path class="cls-2" d="M429.9,179.59h7.17v1H431V184h5.42v1H431v3.47h6.12v1H429.9Z"/><path class="cls-2" d="M439.4,179.59h4.27a3.91,3.91,0,0,1,2.82,1,2.76,2.76,0,0,1,.77,2,2.9,2.9,0,0,1-2.69,2.89l3,4.05h-1.37l-2.88-3.86h-2.83v3.86H439.4Zm4.17,5.06c1.49,0,2.55-.77,2.55-2.07s-.94-2-2.54-2h-3.06v4Z"/><path class="cls-2" d="M449.64,179.59h1.13l3.61,5.42,3.61-5.42h1.13v9.92H458v-8l-3.61,5.32h-.06l-3.61-5.3v8h-1.09Z"/><path class="cls-2" d="M462,179.59h1.12v9.92H462Z"/><path class="cls-2" d="M465.42,188.06l.69-.82a4.73,4.73,0,0,0,3.4,1.4c1.33,0,2.21-.71,2.21-1.72s-.5-1.45-2.58-1.88c-2.28-.5-3.33-1.23-3.33-2.89s1.38-2.71,3.26-2.71a5.18,5.18,0,0,1,3.49,1.22l-.65.87a4.35,4.35,0,0,0-2.86-1.08c-1.29,0-2.11.71-2.11,1.63s.51,1.46,2.69,1.93,3.23,1.29,3.23,2.83c0,1.7-1.42,2.81-3.39,2.81A5.8,5.8,0,0,1,465.42,188.06Z"/><path class="cls-2" d="M474.35,188.06l.69-.82a4.73,4.73,0,0,0,3.4,1.4c1.33,0,2.21-.71,2.21-1.72s-.5-1.45-2.58-1.88c-2.28-.5-3.33-1.23-3.33-2.89s1.38-2.71,3.26-2.71a5.18,5.18,0,0,1,3.49,1.22l-.65.87a4.35,4.35,0,0,0-2.86-1.08c-1.29,0-2.11.71-2.11,1.63s.51,1.46,2.69,1.93,3.23,1.29,3.23,2.83c0,1.7-1.42,2.81-3.39,2.81A5.8,5.8,0,0,1,474.35,188.06Z"/><path class="cls-2" d="M484.17,179.59h1.12v9.92h-1.12Z"/><path class="cls-2" d="M487.75,184.55a5.06,5.06,0,1,1,5,5.13A5,5,0,0,1,487.75,184.55Zm9,0a4,4,0,0,0-3.91-4.1,3.91,3.91,0,0,0-3.88,4.1,3.9,3.9,0,1,0,7.8,0Z"/><path class="cls-2" d="M500.24,179.59h1l6.25,8v-8h1.09v9.92h-.89l-6.41-8.14v8.14h-1.09Z"/><path class="cls-2" d="M510.79,188.06l.69-.82a4.73,4.73,0,0,0,3.4,1.4c1.33,0,2.21-.71,2.21-1.72s-.5-1.45-2.58-1.88c-2.28-.5-3.33-1.23-3.33-2.89s1.38-2.71,3.26-2.71a5.18,5.18,0,0,1,3.49,1.22l-.65.87a4.35,4.35,0,0,0-2.86-1.08c-1.29,0-2.11.71-2.11,1.63s.51,1.46,2.69,1.93,3.23,1.29,3.23,2.83c0,1.7-1.42,2.81-3.39,2.81A5.8,5.8,0,0,1,510.79,188.06Z"/><rect class="cls-1" x="15.03" y="13.09" width="104" height="52" rx="6" ry="6"/><path class="cls-2" d="M41.12,32.51h1.26l5.43,12H46.36L45,41.35H38.48L37.07,44.5H35.69Zm3.32,7.64-2.71-6.07L39,40.15Z"/><path class="cls-2" d="M48.92,38.55a6,6,0,0,1,6-6.16A6.27,6.27,0,0,1,59.34,34l-.87,1a5.07,5.07,0,0,0-3.62-1.36,4.66,4.66,0,0,0-4.53,4.92,4.6,4.6,0,0,0,4.71,5,5.61,5.61,0,0,0,3.44-1.19v-3H54.85V38.14h4.92v4.75A7.22,7.22,0,0,1,55,44.71,5.85,5.85,0,0,1,48.92,38.55Z"/><path class="cls-2" d="M62.79,32.59H71.4v1.22H64.13v4.07h6.5v1.22h-6.5v4.17h7.35V44.5H62.79Z"/><path class="cls-2" d="M74.18,32.59h1.26l7.5,9.54V32.59h1.31V44.5H83.18l-7.69-9.77V44.5H74.18Z"/><path class="cls-2" d="M90.77,33.83h-4V32.59h9.36v1.24h-4V44.5H90.77Z"/><rect class="cls-1" x="15.03" y="293.09" width="104" height="52" rx="6" ry="6"/><rect class="cls-1" x="210.03" y="292.09" width="204" height="52" rx="6" ry="6"/><path class="cls-2" d="M41.12,312.51h1.26l5.43,12H46.36L45,321.35H38.48l-1.41,3.15H35.69Zm3.32,7.64-2.71-6.07L39,320.15Z"/><path class="cls-2" d="M48.92,318.55a6,6,0,0,1,6-6.16A6.27,6.27,0,0,1,59.34,314l-.87,1a5.07,5.07,0,0,0-3.62-1.36,4.66,4.66,0,0,0-4.53,4.92,4.6,4.6,0,0,0,4.71,5,5.61,5.61,0,0,0,3.44-1.19v-3H54.85v-1.21h4.92v4.75A7.22,7.22,0,0,1,55,324.71,5.85,5.85,0,0,1,48.92,318.55Z"/><path class="cls-2" d="M62.79,312.59H71.4v1.22H64.13v4.07h6.5v1.22h-6.5v4.17h7.35v1.22H62.79Z"/><path class="cls-2" d="M74.18,312.59h1.26l7.5,9.54v-9.54h1.31V324.5H83.18l-7.69-9.77v9.77H74.18Z"/><path class="cls-2" d="M90.77,313.83h-4v-1.24h9.36v1.24h-4V324.5H90.77Z"/><path class="cls-2" d="M233.1,314.51h1l4.52,10h-1.2l-1.16-2.62h-5.4l-1.18,2.62h-1.15Zm2.76,6.37-2.25-5.06-2.27,5.06Z"/><path class="cls-2" d="M240.12,320.35v-5.77h1.12v5.7c0,2.14,1.13,3.35,3,3.35s3-1.11,3-3.27v-5.77h1.12v5.68c0,2.89-1.66,4.39-4.14,4.39S240.12,323.15,240.12,320.35Z"/><path class="cls-2" d="M253.65,315.61h-3.33v-1h7.8v1h-3.33v8.89h-1.13Z"/><path class="cls-2" d="M260.22,314.58h1.12V319h5.73v-4.41h1.12v9.92h-1.12V320h-5.73v4.46h-1.12Z"/><path class="cls-2" d="M271,314.58h7.17v1h-6.05V319h5.42v1h-5.42v3.47h6.12v1H271Z"/><path class="cls-2" d="M280.48,314.58h1l6.25,8v-8h1.09v9.92H288l-6.41-8.14v8.14h-1.09Z"/><path class="cls-2" d="M294.3,315.61H291v-1h7.8v1h-3.33v8.89H294.3Z"/><path class="cls-2" d="M301,314.58h1.12v9.92H301Z"/><path class="cls-2" d="M304.55,319.54a5,5,0,0,1,5-5.13,5.12,5.12,0,0,1,3.84,1.6l-.74.79a4.31,4.31,0,0,0-3.12-1.36,4.11,4.11,0,0,0,0,8.19,4.31,4.31,0,0,0,3.2-1.43l.74.78a5.13,5.13,0,0,1-4,1.69A5,5,0,0,1,304.55,319.54Z"/><path class="cls-2" d="M319.12,314.51h1l4.52,10h-1.2l-1.16-2.62h-5.4l-1.18,2.62H314.6Zm2.76,6.37-2.25-5.06-2.27,5.06Z"/><path class="cls-2" d="M328,315.61h-3.33v-1h7.8v1h-3.33v8.89H328Z"/><path class="cls-2" d="M334.65,314.58h1.12v9.92h-1.12Z"/><path class="cls-2" d="M338.24,319.54a5.06,5.06,0,1,1,5,5.13A5,5,0,0,1,338.24,319.54Zm9,0a4,4,0,0,0-3.91-4.1,3.91,3.91,0,0,0-3.88,4.1,3.9,3.9,0,1,0,7.8,0Z"/><path class="cls-2" d="M350.73,314.58h1l6.25,8v-8h1.09v9.92h-.89l-6.41-8.14v8.14h-1.09Z"/><path class="cls-2" d="M226.76,402.54a5.06,5.06,0,1,1,5,5.13A5,5,0,0,1,226.76,402.54Zm9,0a4,4,0,0,0-3.91-4.1,3.91,3.91,0,0,0-3.88,4.1,3.9,3.9,0,1,0,7.8,0Z"/><path class="cls-2" d="M239.25,397.58H243c2.24,0,3.71,1.19,3.71,3.18,0,2.14-1.79,3.25-3.9,3.25h-2.41v3.5h-1.12Zm3.57,5.4c1.64,0,2.72-.88,2.72-2.21s-1.06-2.15-2.67-2.15h-2.51V403Z"/><path class="cls-2" d="M248.72,397.58h7.17v1h-6.05V402h5.42v1h-5.42v3.47H256v1h-7.24Z"/><path class="cls-2" d="M258.21,397.58h1l6.25,8v-8h1.09v9.92h-.89l-6.41-8.14v8.14h-1.09Z"/><path class="cls-2" d="M230.5,414.59h1.12v8.89h5.58v1H230.5Z"/><path class="cls-2" d="M239.27,414.59h3.44a5,5,0,1,1,0,9.92h-3.44Zm3.44,8.89a3.93,3.93,0,1,0,0-7.85h-2.32v7.85Z"/><path class="cls-2" d="M253.37,414.51h1l4.52,10h-1.2l-1.16-2.62h-5.4L250,424.51h-1.15Zm2.76,6.37-2.25-5.06-2.27,5.06Z"/><path class="cls-2" d="M260.9,414.59h3.71c2.24,0,3.71,1.19,3.71,3.18,0,2.14-1.79,3.25-3.9,3.25H262v3.5H260.9Zm3.57,5.4c1.64,0,2.72-.88,2.72-2.21s-1.06-2.15-2.67-2.15H262V420Z"/><path class="cls-2" d="M348.72,398.33h1l4.52,9.71h-1.2l-1.16-2.55h-5.4L345.35,408H344.2Zm2.76,6.19-2.25-4.92L347,404.52Z"/><path class="cls-2" d="M355.23,403.22a4.93,4.93,0,0,1,5-5,5.19,5.19,0,0,1,3.84,1.56l-.74.77a4.37,4.37,0,0,0-3.12-1.32,4,4,0,0,0,0,8,4.36,4.36,0,0,0,3.2-1.39l.74.76a5.2,5.2,0,0,1-4,1.64A4.88,4.88,0,0,1,355.23,403.22Z"/><path class="cls-2" d="M368.75,399.4h-3.33v-1h7.8v1h-3.33V408h-1.13Z"/><path class="cls-2" d="M375.41,398.4h1.12V408h-1.12Z"/><path class="cls-2" d="M378.58,398.4h1.25l3.53,8.31,3.54-8.31h1.2l-4.27,9.71h-1Z"/><path class="cls-2" d="M390.06,398.4h7.17v1h-6.05v3.29h5.41v1h-5.41v3.38h6.12v1h-7.24Z"/><path class="cls-2" d="M331.43,414.94h3.44c3.12,0,5.27,2.08,5.27,4.82s-2.15,4.82-5.27,4.82h-3.44Zm3.44,8.64a3.83,3.83,0,1,0,0-7.63h-2.32v7.63Z"/><path class="cls-2" d="M342.61,414.94h1.12v9.65h-1.12Z"/><path class="cls-2" d="M346.64,414.94h4.27a4,4,0,0,1,2.82,1,2.64,2.64,0,0,1,.77,1.93,2.86,2.86,0,0,1-2.69,2.81l3,3.94h-1.37l-2.88-3.75h-2.83v3.75h-1.12Zm4.17,4.92c1.49,0,2.55-.74,2.55-2s-.94-1.9-2.54-1.9h-3.06v3.91Z"/><path class="cls-2" d="M356.89,414.94h7.17v1H358v3.29h5.42v1H358v3.38h6.12v1h-7.24Z"/><path class="cls-2" d="M365.94,419.76a4.93,4.93,0,0,1,5-5,5.19,5.19,0,0,1,3.84,1.56l-.74.77a4.37,4.37,0,0,0-3.12-1.32,4,4,0,0,0,0,8,4.36,4.36,0,0,0,3.2-1.39l.74.76a5.2,5.2,0,0,1-4,1.64A4.88,4.88,0,0,1,365.94,419.76Z"/><path class="cls-2" d="M379.46,415.95h-3.33v-1h7.8v1H380.6v8.64h-1.13Z"/><path class="cls-2" d="M384.91,419.76a5.06,5.06,0,1,1,5,5A5,5,0,0,1,384.91,419.76Zm9,0a3.89,3.89,0,0,0-3.91-4,3.85,3.85,0,0,0-3.88,4,3.89,3.89,0,0,0,3.91,4A3.85,3.85,0,0,0,393.87,419.76Z"/><path class="cls-2" d="M397.39,414.94h4.27a4,4,0,0,1,2.82,1,2.64,2.64,0,0,1,.77,1.93,2.86,2.86,0,0,1-2.69,2.81l3,3.94h-1.37l-2.88-3.75h-2.83v3.75h-1.12Zm4.17,4.92c1.49,0,2.55-.74,2.55-2s-.94-1.9-2.54-1.9h-3.06v3.91Z"/><path class="cls-2" d="M410.39,420.77l-4.12-5.83h1.36l3.35,4.82,3.37-4.82h1.3l-4.13,5.82v3.83h-1.13Z"/><line class="cls-3" x1="65" y1="75.09" x2="65" y2="143.09"/><line class="cls-3" x1="308" y1="243.09" x2="308" y2="281.09"/><line class="cls-1" x1="248" y1="354.33" x2="248" y2="382.33"/><line class="cls-1" x1="374" y1="354.33" x2="374" y2="382.33"/><circle class="cls-4" cx="65" cy="110.33" r="18"/><line class="cls-3" x1="236" y1="182.33" x2="128" y2="182.33"/><polyline class="cls-3" points="381 172.33 429 112.33 459 112.33"/><polyline class="cls-3" points="381 172.33 429 232.33 459 232.33"/><line class="cls-3" x1="236" y1="212.33" x2="128" y2="322.33"/><path class="cls-5" d="M71,109.31l0,0,0,8-12,0,0-8H71m0-2H59a2,2,0,0,0-2,2v8a2,2,0,0,0,2,2H71a2,2,0,0,0,2-2v-8a2,2,0,0,0-2-2Z"/><path class="cls-6" d="M69,107.13v-2.27a3.94,3.94,0,0,0-7.89,0v2.27"/><circle class="cls-4" cx="185" cy="180.33" r="18"/><path class="cls-5" d="M191,179.31l0,0,0,8-12,0,0-8h12m0-2H179a2,2,0,0,0-2,2v8a2,2,0,0,0,2,2h12a2,2,0,0,0,2-2v-8a2,2,0,0,0-2-2Z"/><path class="cls-6" d="M189,177.13v-2.27a3.94,3.94,0,0,0-7.89,0v2.27"/><circle class="cls-4" cx="185" cy="264.33" r="18"/><path class="cls-5" d="M191,263.31l0,0,0,8-12,0,0-8h12m0-2H179a2,2,0,0,0-2,2v8a2,2,0,0,0,2,2h12a2,2,0,0,0,2-2v-8a2,2,0,0,0-2-2Z"/><path class="cls-6" d="M189,261.13v-2.27a3.94,3.94,0,0,0-7.89,0v2.27"/><circle class="cls-4" cx="388" cy="282.33" r="18"/><circle class="cls-7" cx="429" cy="112.33" r="6"/><circle class="cls-7" cx="429" cy="232.33" r="6"/><path class="cls-8" d="M261,168.47h89.67V192H261V168.47Zm0,0"/><path class="cls-5" d="M264.81,172.05h13v1.68l-10.44,12.79H278v1.86H264.56V186.7L275,173.91H264.81v-1.86Zm0,0"/><path class="cls-5" d="M286.8,174.23l-3,8.13h6.07l-3-8.13Zm-1.26-2.18h2.53l6.29,16.33H292l-1.5-4.19H283.1l-1.5,4.19h-2.36l6.3-16.33Zm0,0"/><path class="cls-5" d="M299,180.58v6h3.58a4.06,4.06,0,0,0,2.67-.74,3.37,3.37,0,0,0,0-4.52,4.1,4.1,0,0,0-2.67-.73Zm0-6.72v4.92h3.31a4,4,0,0,0,2.44-.61,2.54,2.54,0,0,0,0-3.7,4,4,0,0,0-2.44-.61Zm-2.23-1.82h5.7a6.4,6.4,0,0,1,3.94,1,3.53,3.53,0,0,1,1.38,3,3.71,3.71,0,0,1-.71,2.38,3.19,3.19,0,0,1-2.08,1.11,4.36,4.36,0,0,1,2.56,1.46,4.22,4.22,0,0,1,.91,2.77,4.06,4.06,0,0,1-1.5,3.38,6.75,6.75,0,0,1-4.28,1.19h-5.93V172.05Zm0,0"/><path class="cls-5" d="M314.29,180.58v6h3.58a4.06,4.06,0,0,0,2.67-.74,3.37,3.37,0,0,0,0-4.52,4.1,4.1,0,0,0-2.67-.73Zm0-6.72v4.92h3.31a4,4,0,0,0,2.44-.61,2.54,2.54,0,0,0,0-3.7,4,4,0,0,0-2.44-.61Zm-2.23-1.82h5.7a6.4,6.4,0,0,1,3.94,1,3.53,3.53,0,0,1,1.38,3,3.71,3.71,0,0,1-.71,2.38,3.19,3.19,0,0,1-2.08,1.11,4.36,4.36,0,0,1,2.56,1.46,4.22,4.22,0,0,1,.91,2.77,4.06,4.06,0,0,1-1.5,3.38,6.74,6.74,0,0,1-4.28,1.19h-5.93V172.05Zm0,0"/><path class="cls-5" d="M333.81,172.05h2.46l3.88,5.86,3.92-5.86h2.37l-5.11,7.65,5.75,8.68h-2.46l-4.52-6.83-4.57,6.83h-2.37l5.76-8.62Zm0,0"/><path class="cls-5" d="M327.34,172.05h2.23v16.33h-2.23V172.05Zm0,0"/><path class="cls-5" d="M383,278.31a3,3,0,1,1-3,3,3,3,0,0,1,3-3m0-2a5,5,0,1,0,5,5,5,5,0,0,0-5-5Z"/><polyline class="cls-9" points="386 281.33 398 281.33 398 277.33"/><line class="cls-9" x1="393" y1="281.33" x2="393" y2="277.33"/><path class="cls-1" d="M516.19,108.52h-.64A23.58,23.58,0,0,0,518,97.87c0-9.68-5.23-14.6-11.68-14.6S494.6,88.2,494.6,97.87a23.5,23.5,0,0,0,2.48,10.78h-.46l-13.69,13.69v5.08a5.86,5.86,0,0,0,5.84,5.84h35a5.86,5.86,0,0,0,5.84-5.84V122Z"/><path class="cls-1" d="M516.19,108.52,529.64,122v5.47a5.86,5.86,0,0,1-5.84,5.84h-35a5.86,5.86,0,0,1-5.84-5.84v-5.08l13.69-13.69"/><path class="cls-1" d="M518,97.87c0,9.68-5.23,17.52-11.68,17.52s-11.68-7.84-11.68-17.52,5.23-14.6,11.68-14.6S518,88.2,518,97.87Z"/><path class="cls-1" d="M482.88,106.42h-.38a14.15,14.15,0,0,0,1.44-6.39c0-5.81-3.14-8.76-7-8.76s-7,3-7,8.76a14.1,14.1,0,0,0,1.49,6.47h-.28l-8.22,8.22v3a3.51,3.51,0,0,0,3.5,3.5h10"/><path class="cls-1" d="M476.94,121.27H466.43a3.51,3.51,0,0,1-3.5-3.5v-3l8.22-8.22"/><line class="cls-1" x1="482.88" y1="106.42" x2="487.01" y2="110.55"/><path class="cls-1" d="M483.94,100c0,5.81-3.14,10.51-7,10.51s-7-4.71-7-10.51,3.14-8.76,7-8.76S483.94,94.23,483.94,100Z"/><path class="cls-1" d="M546.45,121.27a3.51,3.51,0,0,0,3.5-3.5v-3.28l-8.07-8.07h-.38a14.15,14.15,0,0,0,1.44-6.39c0-5.81-3.14-8.76-7-8.76s-7,3-7,8.76a14.1,14.1,0,0,0,1.49,6.47h-.28"/><line class="cls-1" x1="525.49" y1="111.15" x2="530.14" y2="106.51"/><path class="cls-1" d="M541.88,106.42l8.07,8.07v3.28a3.51,3.51,0,0,1-3.5,3.5H535.94"/><path class="cls-1" d="M542.94,100c0,5.81-3.14,10.51-7,10.51s-7-4.71-7-10.51,3.14-8.76,7-8.76S542.94,94.23,542.94,100Z"/><path class="cls-1" d="M516.19,238.52h-.64A23.58,23.58,0,0,0,518,227.87c0-9.68-5.23-14.6-11.68-14.6s-11.68,4.92-11.68,14.6a23.5,23.5,0,0,0,2.48,10.78h-.46l-13.69,13.69v5.08a5.86,5.86,0,0,0,5.84,5.84h35a5.86,5.86,0,0,0,5.84-5.84V252Z"/><path class="cls-1" d="M516.19,238.52,529.64,252v5.47a5.86,5.86,0,0,1-5.84,5.84h-35a5.86,5.86,0,0,1-5.84-5.84v-5.08l13.69-13.69"/><path class="cls-1" d="M518,227.87c0,9.68-5.23,17.52-11.68,17.52s-11.68-7.84-11.68-17.52,5.23-14.6,11.68-14.6S518,218.2,518,227.87Z"/><path class="cls-1" d="M482.88,236.42h-.38a14.15,14.15,0,0,0,1.44-6.39c0-5.81-3.14-8.76-7-8.76s-7,3-7,8.76a14.1,14.1,0,0,0,1.49,6.47h-.28l-8.22,8.22v3a3.51,3.51,0,0,0,3.5,3.5h10"/><path class="cls-1" d="M476.94,251.27H466.43a3.51,3.51,0,0,1-3.5-3.5v-3l8.22-8.22"/><line class="cls-1" x1="482.88" y1="236.42" x2="487.01" y2="240.55"/><path class="cls-1" d="M483.94,230c0,5.81-3.14,10.51-7,10.51s-7-4.71-7-10.51,3.14-8.76,7-8.76S483.94,224.23,483.94,230Z"/><path class="cls-1" d="M546.45,251.27a3.51,3.51,0,0,0,3.5-3.5v-3.28l-8.07-8.07h-.38a14.15,14.15,0,0,0,1.44-6.39c0-5.81-3.14-8.76-7-8.76s-7,3-7,8.76a14.1,14.1,0,0,0,1.49,6.47h-.28"/><line class="cls-1" x1="525.49" y1="241.15" x2="530.14" y2="236.51"/><path class="cls-1" d="M541.88,236.42l8.07,8.07v3.28a3.51,3.51,0,0,1-3.5,3.5H535.94"/><path class="cls-1" d="M542.94,230c0,5.81-3.14,10.51-7,10.51s-7-4.71-7-10.51,3.14-8.76,7-8.76S542.94,224.23,542.94,230Z"/></svg>