<?xml version="1.0" encoding="UTF-8" standalone="no"?>
<svg
   enable-background="new 0 0 1024 1024"
   height="1024px"
   id="Website"
   version="1.1"
   viewBox="0 0 1024 1024"
   width="1024px"
   xml:space="preserve"
   xmlns="http://www.w3.org/2000/svg"
   xmlns:svg="http://www.w3.org/2000/svg"><defs
     id="defs1268" /><g
     id="Background"
     transform="matrix(0.97642042,0,0,0.96685364,8.7790011,20.636755)"
     style="fill:#1a5fb4"><linearGradient
       gradientTransform="matrix(0.9397,0.342,0.342,-0.9397,275.869,765.6678)"
       gradientUnits="userSpaceOnUse"
       id="bg_1_"
       x1="632.14172"
       x2="-194.04649"
       y1="-13.582613"
       y2="711.46008"><stop
         offset="0"
         style="stop-color:#2B3990"
         id="stop1251" /><stop
         offset="0.1544"
         style="stop-color:#2B4296"
         id="stop1253" /><stop
         offset="0.4063"
         style="stop-color:#2A5AA8"
         id="stop1255" /><stop
         offset="0.7222"
         style="stop-color:#2882C4"
         id="stop1257" /><stop
         offset="1"
         style="stop-color:#27AAE1"
         id="stop1259" /></linearGradient><circle
       cx="512.00098"
       cy="512"
       fill="url(#bg_1_)"
       id="bg"
       r="512"
       style="fill:#1a5fb4" /></g><path
     d="m 508.69945,59.287505 c -256.73099,0 -464.851022,205.130925 -464.851022,458.174615 0,253.0437 208.120032,458.17463 464.851022,458.17463 256.731,0 464.85105,-205.13093 464.85105,-458.17463 0,-253.04369 -208.12005,-458.174615 -464.85105,-458.174615 z M 859.0111,324.89179 c 16.50825,29.07191 29.15039,60.05764 37.67938,92.32746 H 740.40719 c -5.77821,-31.35063 -14.26822,-62.26708 -25.52001,-92.32746 z m -158.22968,292.8086 c -6.23435,31.30135 -15.39293,62.10078 -27.532,91.9102 H 528.16165 v -91.9102 z M 792.2142,238.01934 c 15.41948,15.19495 29.39872,31.42608 41.93139,48.50711 H 698.8116 C 672.17938,229.31254 635.07327,176.05251 587.49331,129.85182 664.55946,144.90818 735.41003,182.02794 792.2142,238.01934 Z M 528.16165,128.73864 c 54.76718,44.88736 97.20786,98.84179 127.32514,157.78781 H 528.16165 Z m 0,196.15315 H 673.0776 c 12.22341,29.9403 21.44292,60.88136 27.70382,92.32746 H 528.16165 Z M 489.23727,129.22056 v 157.30589 h -126.7378 c 30.00793,-58.73508 72.2549,-112.51399 126.7378,-157.30589 z m -170.85565,290.4767 c 6.26403,-31.44609 14.30052,-64.86364 26.52236,-94.80394 l 145.51162,2.47647 v 92.32747 z M 225.18471,238.01934 C 282.1654,181.85549 353.27997,144.68647 430.62417,129.71941 382.97859,175.95088 345.83188,229.25713 319.1731,286.52645 H 183.25328 c 12.53273,-17.08103 26.51351,-33.31216 41.93143,-48.50711 z m -66.79691,86.87245 h 144.70973 c -11.25336,30.05885 -19.74337,60.97683 -25.52003,92.32746 H 120.71151 c 8.52595,-32.26982 21.16802,-63.254 37.67629,-92.32746 z m -0.23589,384.72187 C 141.7608,680.66184 129.1984,649.82083 120.71151,617.705 H 277.5775 c 5.7501,31.20743 14.18701,61.98223 25.36069,91.90866 z m 67.0328,87.29124 C 209.64026,781.58524 195.55637,765.214 182.94555,747.97901 h 136.0354 c 26.66816,57.42483 63.88204,110.88348 111.64166,157.22431 C 353.27997,890.23778 282.16384,853.06876 225.18471,796.9049 Z M 489.23727,905.7037 C 434.62472,860.80551 392.30433,806.87576 362.28391,747.97901 h 126.95336 z m 0,-196.09004 H 344.73373 C 332.59465,679.80424 323.43606,649.00329 317.20329,617.705 h 172.03398 z m 38.92438,196.57196 V 747.97901 H 655.70081 C 625.5726,807.08824 583.06162,861.19206 528.16165,906.18562 Z M 792.2142,796.9049 c -56.80417,55.99137 -127.65474,93.11115 -204.71776,108.16595 47.69401,-46.31306 84.86258,-99.72398 111.50731,-157.09184 H 834.45332 C 821.84251,765.214 807.75865,781.58524 792.2142,796.9049 Z m 67.03278,-87.29124 H 715.04494 c 11.17527,-29.92797 19.61373,-60.70431 25.36225,-91.90866 h 156.28025 c -8.48693,32.11429 -21.04936,62.95684 -37.44046,91.90866 z"
     fill="#ffffff"
     id="Website_1_"
     style="stroke-width:1.55085" /><g
     id="g1005"
     transform="matrix(5.4137622,0,0,5.3607192,-691.74946,310.33818)"><g
       id="g995"><path
         class="st0"
         d="m 296.01622,102.5573 c -0.43143,-1.94184 -3.27416,-4.311969 -4.56846,-3.535247 l -7.84377,7.702357 c -1.43812,0.97092 -1.86955,3.30112 -1.00668,5.04878 l 9.34775,19.02997 c 0.71906,1.35927 2.17587,1.16284 4.56336,1.28321 5.54421,0.0958 6.46092,-2.23608 5.21584,-7.49709 z"
         id="path987-7"
         style="fill:#f5c211;stroke-width:1.6711" /><path
         class="st0"
         d="m 147.42389,102.55943 c 0.43143,-1.94184 3.27416,-4.31199 4.56846,-3.535262 l 7.84377,7.702372 c 1.43812,0.97092 1.86955,3.30112 1.00668,5.04878 l -9.34775,19.02997 c -0.71906,1.35927 -2.17587,1.16284 -4.56336,1.28321 -5.54421,0.0958 -6.46092,-2.23608 -5.21584,-7.49709 z"
         id="path987-7-3"
         style="fill:#f5c211;stroke-width:1.6711" /><path
         class="st0"
         d="m 300.71628,-48.573035 v 0 c -7.62385,-7.3362 -19.41926,-7.767739 -27.47466,-1.294622 -1.15077,0.863078 -1.15077,2.445414 -0.14384,3.452339 l 26.32389,25.461019 c 1.00691,1.006923 2.58922,0.863082 3.4523,-0.287699 6.1854,-8.199308 5.46617,-19.994815 -2.15769,-27.331037 z"
         id="path993-5"
         style="fill:#f5c211;stroke-width:1.43846" /><path
         class="st0"
         d="m 141.04744,-48.352235 v 0 c 7.62385,-7.3362 19.41926,-7.767739 27.47466,-1.294622 1.15077,0.863078 1.15077,2.445414 0.14384,3.452339 L 142.34205,-20.7335 c -1.00691,1.00692 -2.58922,0.86308 -3.4523,-0.2877 -6.1854,-8.199306 -5.46617,-19.994813 2.15769,-27.331035 z"
         id="path993-5-6"
         style="fill:#f5c211;stroke-width:1.43846" /></g><rect
       style="fill:#ed333b;stroke:#757575;stroke-width:0.290686"
       id="rect1761"
       width="53.992119"
       height="6.9786878"
       x="-195.57756"
       y="-130.87935"
       rx="3.706039"
       ry="2.9601734"
       transform="matrix(-0.71818396,-0.69585329,-0.64172708,0.76693309,0,0)" /><rect
       style="fill:#ed333b;stroke:#757575;stroke-width:0.314108"
       id="rect1763"
       width="70.343414"
       height="7.7505822"
       x="122.26054"
       y="-210.71841"
       rx="4.9945989"
       ry="2.5451975"
       transform="matrix(0.56947882,-0.82200601,-0.73839554,-0.67436788,0,0)" /><circle
       class="st0"
       cx="221.69003"
       cy="37.891888"
       id="circle1003-2"
       style="fill:#f5c211;stroke-width:2.41162"
       r="14.952038" /></g></svg>
