<?xml version="1.0" encoding="UTF-8" standalone="no"?>
<svg
   enable-background="new 0 0 64 64"
   height="64px"
   version="1.1"
   viewBox="0 0 64 64"
   width="64px"
   xml:space="preserve"
   id="svg36"
   sodipodi:docname="awaitable.svg"
   inkscape:version="1.2.1 (9c6d41e410, 2022-07-14, custom)"
   xmlns:inkscape="http://www.inkscape.org/namespaces/inkscape"
   xmlns:sodipodi="http://sodipodi.sourceforge.net/DTD/sodipodi-0.dtd"
   xmlns="http://www.w3.org/2000/svg"
   xmlns:svg="http://www.w3.org/2000/svg"><defs
     id="defs40" /><sodipodi:namedview
     id="namedview38"
     pagecolor="#ffffff"
     bordercolor="#666666"
     borderopacity="1.0"
     inkscape:showpageshadow="2"
     inkscape:pageopacity="0.0"
     inkscape:pagecheckerboard="0"
     inkscape:deskcolor="#d1d1d1"
     showgrid="false"
     inkscape:zoom="6.5546875"
     inkscape:cx="9.4588796"
     inkscape:cy="21.206198"
     inkscape:window-width="1920"
     inkscape:window-height="1011"
     inkscape:window-x="0"
     inkscape:window-y="32"
     inkscape:window-maximized="1"
     inkscape:current-layer="svg36" /><g
     id="Layer_1"><g
       id="g4"
       style="fill:#1a5fb4"><circle
         cx="32"
         cy="32"
         fill="#c75c5c"
         r="32"
         id="circle2"
         style="fill:#1a5fb4" /></g><g
       opacity="0.2"
       id="g8"><path
         d="M46,50h-2c0-0.74,0-1.968,0-4c0-4.542-3-7.389-3-7.389s-2.975-2.847-3.89-3.722    c-0.915-0.875,0-1.778,0-1.778s1.34-1.282,4.173-3.993c2.833-2.711,2.717-6.66,2.717-6.66l0.001-5.125l-12.001-1l-12.001,1    L20,22.458c0,0-0.116,3.949,2.717,6.66c2.833,2.711,4.173,3.993,4.173,3.993s0.915,0.903,0,1.778    C25.975,35.764,23,38.611,23,38.611S20,41.458,20,46c0,2.032,0,3.26,0,4h-2c-1.105,0-2,0.895-2,2c0,1.105,0.895,2,2,2h28    c1.105,0,2-0.895,2-2C48,50.895,47.105,50,46,50z"
         fill="#231F20"
         id="path6" /></g><g
       id="g12"><path
         d="M41,36.611c0,0-2.975-2.847-3.89-3.722c-0.915-0.875,0-1.778,0-1.778s1.34-1.282,4.173-3.993    c2.833-2.711,2.717-6.66,2.717-6.66l0.001-5.125l-12.001-1l-12.001,1L20,20.458c0,0-0.116,3.949,2.717,6.66    c2.833,2.711,4.173,3.993,4.173,3.993s0.915,0.903,0,1.778C25.975,33.764,23,36.611,23,36.611S20,39.458,20,44    c0,4.542-0.001,5.083-0.001,5.083H32h12.001c0,0-0.001-0.542-0.001-5.083C44,39.458,41,36.611,41,36.611z"
         fill="#FFFFFF"
         id="path10" /></g><g
       id="g16"
       style="fill:#c061cb"><path
         d="M31,43l0.031-11c0.016-2.061-0.952-3.362-1.331-3.736l-4.218-4.036c-1.432-1.371-1.484-3.63-1.484-3.652    H32h8.002c0,0,0,0,0,0c-0.001,0-0.023,2.255-1.484,3.652l-4.173,3.992C33.921,28.638,32.984,29.939,33,32l0,11H31z"
         fill="#4F5D73"
         id="path14"
         style="fill:#c061cb" /></g><g
       opacity="0.3"
       id="g20"><path
         d="M48,16c0,1.105-0.895,2-2,2H18c-1.105,0-2-0.895-2-2l0,0c0-1.105,0.895-2,2-2h28    C47.105,14,48,14.895,48,16L48,16z"
         fill="#231F20"
         id="path18" /></g><g
       id="g24"
       style="fill:#2ec27e"><path
         d="M48,14c0,1.105-0.895,2-2,2H18c-1.105,0-2-0.895-2-2l0,0c0-1.105,0.895-2,2-2h28    C47.105,12,48,12.895,48,14L48,14z"
         fill="#F5CF87"
         id="path22"
         style="fill:#2ec27e" /></g><g
       id="g28"
       style="fill:#2ec27e"><path
         d="M48,50c0,1.105-0.895,2-2,2H18c-1.105,0-2-0.895-2-2l0,0c0-1.105,0.895-2,2-2h28    C47.105,48,48,48.895,48,50L48,50z"
         fill="#F5CF87"
         id="path26"
         style="fill:#2ec27e" /></g><g
       id="g32"
       style="fill:#c061cb"><polygon
         fill="#4F5D73"
         points="41,48 41,48 23,48 23,48 32,40   "
         id="polygon30"
         style="fill:#c061cb" /></g><path
       sodipodi:type="star"
       style="fill:#f5c211;stroke:#454545;stroke-width:0.6;stroke-linejoin:bevel;stroke-dasharray:none;stroke-opacity:1"
       id="path537"
       inkscape:flatsided="false"
       sodipodi:sides="5"
       sodipodi:cx="11.847535"
       sodipodi:cy="16.783064"
       sodipodi:r1="8.0324049"
       sodipodi:r2="3.2129619"
       sodipodi:arg1="1.2114845"
       sodipodi:arg2="1.839803"
       inkscape:rounded="0.02"
       inkscape:randomized="0"
       d="m 14.67197,24.302512 c -0.107692,0.04045 -3.567455,-4.391465 -3.678356,-4.422039 -0.110902,-0.03057 -5.3529502,2.002347 -5.4247001,1.912426 -0.07175,-0.08992 3.0741265,-4.749889 3.068934,-4.864811 -0.00519,-0.114921 -3.5584976,-4.472198 -3.4951494,-4.568224 0.063348,-0.09602 5.4673705,1.455872 5.5750625,1.415421 0.107692,-0.04045 3.153677,-4.7663178 3.264578,-4.7357435 0.110902,0.030574 0.304895,5.6496675 0.376645,5.7395885 0.07175,0.08992 5.507577,1.526452 5.512769,1.641373 0.0052,0.114922 -5.278935,2.035815 -5.342283,2.131841 -0.06335,0.09602 0.250193,5.709717 0.1425,5.750168 z"
       inkscape:transform-center-x="-0.42424236"
       inkscape:transform-center-y="-0.072054946"
       transform="matrix(0.64349925,0,0,0.64349925,42.727176,10.574525)" /><path
       sodipodi:type="star"
       style="fill:#f5c211;stroke:#454545;stroke-width:0.6;stroke-linejoin:bevel;stroke-dasharray:none;stroke-opacity:1"
       id="path537-3"
       inkscape:flatsided="false"
       sodipodi:sides="5"
       sodipodi:cx="11.847535"
       sodipodi:cy="16.783064"
       sodipodi:r1="8.0324049"
       sodipodi:r2="3.2129619"
       sodipodi:arg1="1.2114845"
       sodipodi:arg2="1.839803"
       inkscape:rounded="0.02"
       inkscape:randomized="0"
       d="m 14.67197,24.302512 c -0.107692,0.04045 -3.567455,-4.391465 -3.678356,-4.422039 -0.110902,-0.03057 -5.3529502,2.002347 -5.4247001,1.912426 -0.07175,-0.08992 3.0741265,-4.749889 3.068934,-4.864811 -0.00519,-0.114921 -3.5584976,-4.472198 -3.4951494,-4.568224 0.063348,-0.09602 5.4673705,1.455872 5.5750625,1.415421 0.107692,-0.04045 3.153677,-4.7663178 3.264578,-4.7357435 0.110902,0.030574 0.304895,5.6496675 0.376645,5.7395885 0.07175,0.08992 5.507577,1.526452 5.512769,1.641373 0.0052,0.114922 -5.278935,2.035815 -5.342283,2.131841 -0.06335,0.09602 0.250193,5.709717 0.1425,5.750168 z"
       inkscape:transform-center-x="-0.29656954"
       inkscape:transform-center-y="-0.050370472"
       transform="matrix(0.44984333,0,0,0.44984333,49.261077,21.827562)" /><path
       sodipodi:type="star"
       style="fill:#f5c211;stroke:#454545;stroke-width:0.6;stroke-linejoin:bevel;stroke-dasharray:none;stroke-opacity:1"
       id="path537-3-6"
       inkscape:flatsided="false"
       sodipodi:sides="5"
       sodipodi:cx="11.847535"
       sodipodi:cy="16.783064"
       sodipodi:r1="8.0324049"
       sodipodi:r2="3.2129619"
       sodipodi:arg1="1.2114845"
       sodipodi:arg2="1.839803"
       inkscape:rounded="0.02"
       inkscape:randomized="0"
       d="m 14.67197,24.302512 c -0.107692,0.04045 -3.567455,-4.391465 -3.678356,-4.422039 -0.110902,-0.03057 -5.3529502,2.002347 -5.4247001,1.912426 -0.07175,-0.08992 3.0741265,-4.749889 3.068934,-4.864811 -0.00519,-0.114921 -3.5584976,-4.472198 -3.4951494,-4.568224 0.063348,-0.09602 5.4673705,1.455872 5.5750625,1.415421 0.107692,-0.04045 3.153677,-4.7663178 3.264578,-4.7357435 0.110902,0.030574 0.304895,5.6496675 0.376645,5.7395885 0.07175,0.08992 5.507577,1.526452 5.512769,1.641373 0.0052,0.114922 -5.278935,2.035815 -5.342283,2.131841 -0.06335,0.09602 0.250193,5.709717 0.1425,5.750168 z"
       inkscape:transform-center-x="-0.19894636"
       inkscape:transform-center-y="-0.033789718"
       transform="matrix(0.30176618,0,0,0.30176618,53.577367,31.091709)" /><path
       sodipodi:type="star"
       style="fill:#f5c211;stroke:#454545;stroke-width:0.6;stroke-linejoin:bevel;stroke-dasharray:none;stroke-opacity:1"
       id="path537-3-6-7"
       inkscape:flatsided="false"
       sodipodi:sides="5"
       sodipodi:cx="11.847535"
       sodipodi:cy="16.783064"
       sodipodi:r1="8.0324049"
       sodipodi:r2="3.2129619"
       sodipodi:arg1="1.2114845"
       sodipodi:arg2="1.839803"
       inkscape:rounded="0.02"
       inkscape:randomized="0"
       d="m 14.67197,24.302512 c -0.107692,0.04045 -3.567455,-4.391465 -3.678356,-4.422039 -0.110902,-0.03057 -5.3529502,2.002347 -5.4247001,1.912426 -0.07175,-0.08992 3.0741265,-4.749889 3.068934,-4.864811 -0.00519,-0.114921 -3.5584976,-4.472198 -3.4951494,-4.568224 0.063348,-0.09602 5.4673705,1.455872 5.5750625,1.415421 0.107692,-0.04045 3.153677,-4.7663178 3.264578,-4.7357435 0.110902,0.030574 0.304895,5.6496675 0.376645,5.7395885 0.07175,0.08992 5.507577,1.526452 5.512769,1.641373 0.0052,0.114922 -5.278935,2.035815 -5.342283,2.131841 -0.06335,0.09602 0.250193,5.709717 0.1425,5.750168 z"
       inkscape:transform-center-x="-0.13334394"
       inkscape:transform-center-y="-0.022647283"
       transform="matrix(0.20225946,0,0,0.20225946,56.609998,37.424674)" /></g><g
     id="Layer_2" /></svg>
