<?xml version="1.0" encoding="UTF-8" standalone="no"?>
<svg
   viewBox="0 0 64 64"
   version="1.1"
   id="svg96"
   sodipodi:docname="mumailer.svg"
   xml:space="preserve"
   inkscape:version="1.2.1 (9c6d41e410, 2022-07-14, custom)"
   xmlns:inkscape="http://www.inkscape.org/namespaces/inkscape"
   xmlns:sodipodi="http://sodipodi.sourceforge.net/DTD/sodipodi-0.dtd"
   xmlns="http://www.w3.org/2000/svg"
   xmlns:svg="http://www.w3.org/2000/svg"><sodipodi:namedview
     id="namedview98"
     pagecolor="#ffffff"
     bordercolor="#666666"
     borderopacity="1.0"
     inkscape:showpageshadow="2"
     inkscape:pageopacity="0.0"
     inkscape:pagecheckerboard="0"
     inkscape:deskcolor="#d1d1d1"
     showgrid="false"
     inkscape:zoom="6.5546875"
     inkscape:cx="67.890345"
     inkscape:cy="31.42789"
     inkscape:window-width="1920"
     inkscape:window-height="1011"
     inkscape:window-x="0"
     inkscape:window-y="32"
     inkscape:window-maximized="1"
     inkscape:current-layer="cow" /><defs
     id="defs69"><style
       id="style67">.cls-1{fill:#edcad4;}.cls-2{fill:#9d5b6e;}.cls-3{fill:#aeadb3;}.cls-4{fill:#3e2c27;}.cls-5{fill:#eaeaea;}.cls-6{fill:#2d2d2d;}</style></defs><title
     id="title71" /><g
     id="cow"><path
       class="cls-1"
       d="m 55.49706,51.158464 v 2.477139 a 9.2892715,9.2892715 0 0 1 -9.289272,9.289272 H 17.720689 A 9.2892715,9.2892715 0 0 1 8.4314172,53.635603 v -2.477139 a 9.3140429,9.3140429 0 0 1 9.2892718,-9.289272 h 28.487099 a 9.3140429,9.3140429 0 0 1 9.289272,9.289272 z"
       id="path73"
       style="stroke-width:1.23857" /><circle
       class="cls-2"
       cx="21.436398"
       cy="52.397034"
       r="3.0964239"
       id="circle75"
       style="stroke-width:1.23857" /><circle
       class="cls-2"
       cx="42.492081"
       cy="52.397034"
       r="3.0964239"
       id="circle77"
       style="stroke-width:1.23857" /><path
       class="cls-3"
       d="m 18.959258,12.143523 -0.222942,1.32527 a 17.339974,17.339974 0 0 0 -6.41579,11.729253 13.426094,13.426094 0 0 1 -3.8891088,0.569742 H 1 A 13.624265,13.624265 0 0 1 14.624265,12.143523 Z"
       id="path79"
       style="stroke-width:1.23857" /><path
       class="cls-3"
       d="m 18.959258,12.143523 -0.222942,1.32527 a 17.339974,17.339974 0 0 0 -6.41579,11.729253 13.426094,13.426094 0 0 1 -3.8891088,0.569742 H 1 A 13.624265,13.624265 0 0 1 14.624265,12.143523 Z"
       id="path81"
       style="stroke-width:1.23857" /><path
       class="cls-3"
       d="M 62.928477,25.767788 H 55.49706 a 13.426094,13.426094 0 0 1 -3.889109,-0.569742 17.339974,17.339974 0 0 0 -6.41579,-11.729253 l -0.222942,-1.32527 h 4.334993 a 13.624265,13.624265 0 0 1 13.624265,13.624265 z"
       id="path83"
       style="stroke-width:1.23857" /><path
       class="cls-4"
       d="m 27.245289,9.8273984 a 17.216117,17.216117 0 0 0 -6.601576,2.3161246 16.894089,16.894089 0 0 0 -1.907397,1.32527 l 0.222942,-1.32527 1.449127,-8.6699863 a 2.9230241,2.9230241 0 0 1 5.771734,0 z"
       id="path85"
       style="stroke-width:1.23857" /><path
       class="cls-5"
       d="M 51.694651,27.006358 V 43.677504 A 9.1654146,9.1654146 0 0 0 46.207788,41.869192 H 17.720689 a 9.1654146,9.1654146 0 0 0 -5.486863,1.808312 V 27.006358 c 0,-0.606899 0,-1.23857 0.0867,-1.808312 a 17.339974,17.339974 0 0 1 6.41579,-11.729253 16.894089,16.894089 0 0 1 1.907397,-1.32527 17.216117,17.216117 0 0 1 6.601576,-2.3161246 15.977547,15.977547 0 0 1 2.32851,-0.161014 h 4.780879 a 15.977547,15.977547 0 0 1 2.32851,0.161014 17.216117,17.216117 0 0 1 6.601576,2.3161246 16.894089,16.894089 0 0 1 1.907397,1.32527 17.339974,17.339974 0 0 1 6.41579,11.729253 c 0.04954,0.569742 0.0867,1.201413 0.0867,1.808312 z"
       id="path87"
       style="stroke-width:1.23857" /><circle
       class="cls-6"
       cx="23.913536"
       cy="28.864212"
       r="1.8578544"
       id="circle89"
       style="stroke-width:1.23857" /><circle
       class="cls-6"
       cx="40.014942"
       cy="28.864212"
       r="1.8578544"
       id="circle91"
       style="stroke-width:1.23857" /><path
       class="cls-4"
       d="m 45.192161,13.468793 a 16.894089,16.894089 0 0 0 -1.907397,-1.32527 17.216117,17.216117 0 0 0 -6.601576,-2.3161246 l 1.06517,-6.3538617 a 2.9230241,2.9230241 0 0 1 5.771734,0 l 1.449127,8.6699863 z"
       id="path93"
       style="stroke-width:1.23857" /></g><path
     d="m 45.616152,17.062237 h -27.30152 c -2.512878,0 -4.550253,1.440566 -4.550253,3.21555 v 10.450532 c 0,1.775788 2.037375,3.215549 4.550253,3.215549 h 27.30152 c 2.512877,0 4.550253,-1.439761 4.550253,-3.215549 V 20.277787 c 0,-1.774984 -2.037376,-3.21555 -4.550253,-3.21555 z m -29.576646,4.22041 7.961805,4.220407 -7.961805,4.220407 z m 31.851773,9.445672 c 0,0.887493 -1.021531,1.607775 -2.275127,1.607775 h -27.30152 c -1.254732,0 -2.275126,-0.720282 -2.275126,-1.607775 l 8.909395,-4.722837 4.968876,2.634339 c 0.606322,0.319947 1.3264,0.482332 2.047616,0.482332 0.720077,0 1.440155,-0.161581 2.046476,-0.482332 l 4.970014,-2.634339 z m 0,-1.004858 -7.962943,-4.220407 7.962943,-4.220407 z m -14.561947,-1.72675 c -0.39701,0.210618 -0.867963,0.321556 -1.363939,0.321556 -0.495979,0 -0.968067,-0.111731 -1.365077,-0.321556 l -4.703824,-2.493657 -0.947591,-0.502428 -8.909395,-4.722035 v -7.96e-4 c 0,-0.886685 1.020394,-1.607772 2.275126,-1.607772 h 27.30152 c 1.253596,0 2.275127,0.721087 2.275127,1.607772 z"
     fill="#333333"
     id="mail"
     style="stroke-width:0.956281" /></svg>
