<?xml version="1.0" encoding="UTF-8" standalone="no"?>
<!-- Created with Inkscape (http://www.inkscape.org/) -->

<svg
   width="200"
   height="200"
   viewBox="0 0 52.916665 52.916666"
   version="1.1"
   id="svg5"
   sodipodi:docname="icon-scalable.svg"
   inkscape:version="1.2.2 (b0a8486541, 2022-12-01)"
   inkscape:export-filename="icon512.png"
   inkscape:export-xdpi="245.75999"
   inkscape:export-ydpi="245.75999"
   xml:space="preserve"
   xmlns:inkscape="http://www.inkscape.org/namespaces/inkscape"
   xmlns:sodipodi="http://sodipodi.sourceforge.net/DTD/sodipodi-0.dtd"
   xmlns="http://www.w3.org/2000/svg"
   xmlns:svg="http://www.w3.org/2000/svg"
   xmlns:sketch="http://www.bohemiancoding.com/sketch/ns"><sodipodi:namedview
     id="namedview7"
     pagecolor="#ffffff"
     bordercolor="#666666"
     borderopacity="1.0"
     inkscape:showpageshadow="2"
     inkscape:pageopacity="0"
     inkscape:pagecheckerboard="0"
     inkscape:deskcolor="#d1d1d1"
     inkscape:document-units="mm"
     showgrid="false"
     inkscape:zoom="2.9897026"
     inkscape:cx="40.806734"
     inkscape:cy="92.316875"
     inkscape:window-width="1920"
     inkscape:window-height="1011"
     inkscape:window-x="0"
     inkscape:window-y="32"
     inkscape:window-maximized="1"
     inkscape:current-layer="layer1" /><defs
     id="defs2"><rect
       x="-20.064938"
       y="86.068378"
       width="230.91182"
       height="93.966922"
       id="rect468" /><filter
       inkscape:collect="always"
       style="color-interpolation-filters:sRGB"
       id="filter3810"
       x="-0.0023489209"
       y="-0.0023489209"
       width="1.0046978"
       height="1.0046978"><feGaussianBlur
         inkscape:collect="always"
         stdDeviation="0.046611399"
         id="feGaussianBlur3812" /></filter></defs><g
     inkscape:label="Livello 1"
     inkscape:groupmode="layer"
     id="layer1"><rect
       style="mix-blend-mode:normal;fill:#ffffff;fill-opacity:1;stroke:none;stroke-width:0.1395;stroke-linejoin:bevel;stroke-dasharray:none;paint-order:stroke fill markers;filter:url(#filter3810)"
       id="rect3267"
       width="47.625"
       height="47.625"
       x="0.11186735"
       y="0.11186735"
       transform="matrix(1.1056463,0,0,1.1061714,0.0064461,-0.00612971)" /><text
       xml:space="preserve"
       style="font-style:normal;font-weight:normal;font-size:10.5833px;line-height:125%;font-family:Sans;letter-spacing:0px;word-spacing:0px;fill:#000000;fill-opacity:1;stroke:none;stroke-width:0.264583px;stroke-linecap:butt;stroke-linejoin:miter;stroke-opacity:1"
       x="28.100643"
       y="30.178091"
       id="text417"><tspan
         sodipodi:role="line"
         id="tspan415"
         style="stroke-width:0.264583px"
         x="28.100643"
         y="30.178091" /></text><text
       xml:space="preserve"
       style="font-style:normal;font-weight:normal;font-size:12.277px;line-height:100%;font-family:Sans;letter-spacing:0px;word-spacing:0px;fill:#0b308d;fill-opacity:1;stroke:none;stroke-width:0.263079px;stroke-linecap:butt;stroke-linejoin:miter;stroke-opacity:1"
       x="1.4976827"
       y="32.81881"
       id="text421"
       transform="scale(0.99431391,1.0057186)"><tspan
         sodipodi:role="line"
         id="tspan419"
         style="font-style:normal;font-variant:normal;font-weight:bold;font-stretch:normal;font-size:12.277px;font-family:Sans;-inkscape-font-specification:'Sans Bold';fill:#0b308d;fill-opacity:1;stroke-width:0.263079px"
         x="1.4976827"
         y="32.81881">Admin</tspan><tspan
         sodipodi:role="line"
         style="font-style:normal;font-variant:normal;font-weight:bold;font-stretch:normal;font-size:12.277px;font-family:Sans;-inkscape-font-specification:'Sans Bold';fill:#0b308d;fill-opacity:1;stroke-width:0.263079px"
         x="1.4976827"
         y="45.09581"
         id="tspan423">Settings</tspan></text><text
       xml:space="preserve"
       transform="scale(0.26458333)"
       id="text466"
       style="font-style:normal;font-weight:normal;font-size:40px;line-height:125%;font-family:Sans;letter-spacing:0px;word-spacing:0px;white-space:pre;shape-inside:url(#rect468);display:inline;fill:#000000;fill-opacity:1;stroke:none;stroke-width:1px;stroke-linecap:butt;stroke-linejoin:miter;stroke-opacity:1" /><path
       d="M 7.3376587,3.0973132 H 10.052281 V 16.531482 c -1.3905018,0.283996 -2.4141622,0.395727 -3.5216723,0.395727 -3.3155431,-0.0037 -5.041442,-1.603087 -5.041442,-4.674737 0,-2.9595452 1.830711,-4.88026 4.6676137,-4.88026 0.4402091,0 0.7756062,0.037369 1.1808783,0.149472 z m 0,6.7598704 C 7.0197298,9.7450786 6.7577006,9.7077116 6.4223029,9.7077116 c -1.3730326,0 -2.166108,0.9043064 -2.166108,2.4890824 0,1.542925 0.7581379,2.394915 2.1486397,2.394915 0.3004601,0 0.5450206,-0.01832 0.9328241,-0.07436 z M 14.367029,7.5777357 v 6.7262393 c 0,2.316443 -0.16071,3.430383 -0.632364,4.390739 -0.440208,0.923364 -1.020167,1.505557 -2.218514,2.148661 L 8.9971768,19.561653 C 10.195524,18.960401 10.775482,18.429028 11.145817,17.618143 11.53362,16.788947 11.6559,15.82859 11.6559,13.302513 V 7.5777357 Z M 11.6559,3.1122604 h 2.714623 v 2.978229 H 11.6559 Z m 4.349336,5.1268888 c 1.198696,-0.6016247 2.344636,-0.8669372 3.595389,-0.8669372 1.393996,0 2.309002,0.3961005 2.714624,1.1696183 0.22709,0.4334687 0.300459,0.9977254 0.300459,2.2047117 v 5.89667 c -1.215467,0.186841 -2.749559,0.320991 -3.874888,0.320991 -2.274413,0 -3.29458,-0.848253 -3.29458,-2.731226 0,-2.036556 1.355914,-2.97823 4.685082,-3.277548 v -0.638993 c 0,-0.5268884 -0.248054,-0.7174653 -0.932824,-0.7174653 -1.002698,0 -2.131171,0.3026805 -3.189768,0.8856213 z m 4.248367,4.6145748 c -1.795774,0.186839 -2.379225,0.489894 -2.379225,1.244354 0,0.565004 0.335397,0.829943 1.076066,0.829943 0.405272,0 0.775606,-0.03737 1.302809,-0.130788 v -1.943509 z m 3.682733,-4.8238351 c 1.603618,-0.4521532 2.923896,-0.6576769 4.261992,-0.6576769 1.390502,0 2.397043,0.3400485 2.99412,0.9977253 0.56214,0.6203089 0.741019,1.3004061 0.741019,2.7502857 v 5.691145 h -2.714972 v -5.575305 c 0,-1.113566 -0.352867,-1.5283516 -1.320279,-1.5283516 -0.370683,0 -0.705732,0.037369 -1.250753,0.2092609 v 6.8947697 h -2.711127 z m 9.052236,10.3655081 c 0.949941,0.526889 1.900584,0.770156 2.906777,0.770156 1.778305,0 2.536444,-0.773519 2.536444,-2.619498 v -0.05605 c -0.527552,0.28026 -1.058947,0.396474 -1.761188,0.396474 -2.378877,0 -3.891658,-1.677823 -3.891658,-4.334687 0,-3.2995946 2.239476,-5.1642578 6.201359,-5.1642578 1.163412,0 2.239477,0.1307875 3.542286,0.4147852 l -0.92933,2.0926071 c -0.722502,-0.149472 -0.05939,-0.02242 -0.604065,-0.078472 v 0.3026805 l 0.03494,1.225671 0.01713,1.584403 c 0.01785,0.396474 0.01785,0.791828 0.03563,1.188302 v 0.791827 c 0,2.488709 -0.195998,3.654964 -0.775956,4.619058 -0.845483,1.412137 -2.309002,2.111292 -4.388469,2.111292 -1.058249,0 -1.973954,-0.168526 -2.923895,-0.565004 z m 5.390815,-8.6690015 h -0.08735 -0.195998 c -0.527552,-0.018688 -1.145594,0.1307875 -1.568683,0.4147845 -0.649483,0.396101 -0.984532,1.113567 -0.984532,2.129976 0,1.449505 0.670796,2.279448 1.869144,2.279448 0.369985,0 0.670794,-0.07436 1.020168,-0.186841 V 14.15413 13.362302 c 0,-0.340049 -0.01785,-0.717465 -0.01785,-1.113566 l -0.01713,-1.337775 -0.01785,-0.9603574 z m 8.353491,-2.3915517 c 2.711127,0 4.367154,1.8272949 4.367154,4.7868412 0,3.034281 -1.725553,4.935938 -4.475806,4.935938 -2.714626,0 -4.388469,-1.826921 -4.388469,-4.767409 0.0045,-3.0533393 1.730091,-4.9553702 4.497121,-4.9553702 z m -0.05589,7.3835432 c 1.041127,0 1.656024,-0.922616 1.656024,-2.525703 0,-1.584403 -0.597777,-2.5260775 -1.638208,-2.5260775 -1.076064,0 -1.691661,0.9229905 -1.691661,2.5260775 0,1.603087 0.618742,2.525703 1.673845,2.525703 z m 0,0"
       id="Shape"
       sketch:type="MSShapeGroup"
       style="fill:#000000;fill-opacity:1;fill-rule:evenodd;stroke:none;stroke-width:0.495681" /></g></svg>
