<?xml version="1.0" encoding="UTF-8" standalone="no"?>
<svg
   id="Icons"
   style="enable-background:new 0 0 32 32;"
   version="1.1"
   viewBox="0 0 32 32"
   xml:space="preserve"
   sodipodi:docname="pixelcolor.svg"
   inkscape:version="1.2.1 (9c6d41e410, 2022-07-14, custom)"
   inkscape:export-filename="pixelcolor.png"
   inkscape:export-xdpi="768"
   inkscape:export-ydpi="768"
   xmlns:inkscape="http://www.inkscape.org/namespaces/inkscape"
   xmlns:sodipodi="http://sodipodi.sourceforge.net/DTD/sodipodi-0.dtd"
   xmlns="http://www.w3.org/2000/svg"
   xmlns:svg="http://www.w3.org/2000/svg"><defs
     id="defs7" /><sodipodi:namedview
     id="namedview5"
     pagecolor="#ffffff"
     bordercolor="#666666"
     borderopacity="1.0"
     inkscape:showpageshadow="2"
     inkscape:pageopacity="0.0"
     inkscape:pagecheckerboard="0"
     inkscape:deskcolor="#d1d1d1"
     showgrid="false"
     inkscape:zoom="37.078912"
     inkscape:cx="15.493982"
     inkscape:cy="7.173889"
     inkscape:window-width="1920"
     inkscape:window-height="1011"
     inkscape:window-x="0"
     inkscape:window-y="32"
     inkscape:window-maximized="1"
     inkscape:current-layer="Icons" /><rect
     style="fill:#26a269;stroke:#000000;stroke-width:0.5;stroke-linejoin:bevel;stroke-dasharray:none;stroke-opacity:1"
     id="rect997"
     width="10.043988"
     height="10.043988"
     x="0.31056941"
     y="21.657814"
     ry="1.3930175" /><rect
     style="fill:#eb355b;fill-opacity:1;stroke:#000000;stroke-width:0.5;stroke-linejoin:bevel;stroke-dasharray:none;stroke-opacity:1"
     id="rect997-3"
     width="10.043988"
     height="10.043988"
     x="10.983488"
     y="21.651316"
     ry="1.3930175" /><rect
     style="fill:#1a5fb4;stroke:#000000;stroke-width:0.5;stroke-linejoin:bevel;stroke-dasharray:none;stroke-opacity:1"
     id="rect997-6"
     width="10.043988"
     height="10.043988"
     x="21.649437"
     y="21.646599"
     ry="1.3930175" /><rect
     style="fill:#9141ac;stroke:#000000;stroke-width:0.5;stroke-linejoin:bevel;stroke-dasharray:none;stroke-opacity:1"
     id="rect997-7"
     width="10.043988"
     height="10.043988"
     x="0.31497502"
     y="11.008152"
     ry="1.3930175" /><rect
     style="fill:#e3e032;fill-opacity:1;stroke:#000000;stroke-width:0.5;stroke-linejoin:bevel;stroke-dasharray:none;stroke-opacity:1"
     id="rect997-3-5"
     width="10.043988"
     height="10.043988"
     x="10.987893"
     y="11.001653"
     ry="1.3930175" /><rect
     style="fill:#cfa35b;fill-opacity:1;stroke:#000000;stroke-width:0.5;stroke-linejoin:bevel;stroke-dasharray:none;stroke-opacity:1"
     id="rect997-6-3"
     width="10.043988"
     height="10.043988"
     x="21.653849"
     y="10.996937"
     ry="1.3930175" /><rect
     style="fill:#3926a2;fill-opacity:1;stroke:#000000;stroke-width:0.5;stroke-linejoin:bevel;stroke-dasharray:none;stroke-opacity:1"
     id="rect997-5"
     width="10.043988"
     height="10.043988"
     x="0.31712133"
     y="0.34771994"
     ry="1.3930175" /><rect
     style="fill:#6da9a8;fill-opacity:1;stroke:#000000;stroke-width:0.5;stroke-linejoin:bevel;stroke-dasharray:none;stroke-opacity:1"
     id="rect997-3-6"
     width="10.043988"
     height="10.043988"
     x="10.990047"
     y="0.3412216"
     ry="1.3930175" /><rect
     style="fill:#bfbfbf;fill-opacity:1;stroke:#000000;stroke-width:0.5;stroke-linejoin:bevel;stroke-dasharray:none;stroke-opacity:1"
     id="rect997-6-2"
     width="10.043988"
     height="10.043988"
     x="21.655952"
     y="0.33650476"
     ry="1.3930175" /><g
     id="g4485"
     transform="translate(35.444942,-8.7362012)"><path
       d="m -5.6849897,11.572227 c -0.875288,-0.875288 -2.275748,-0.875288 -3.151037,0 l -3.0926823,3.092684 -0.758583,-0.758583 c -0.23341,-0.23341 -0.583526,-0.23341 -0.816936,0 -0.23341,0.23341 -0.23341,0.583525 0,0.816935 l 0.758583,0.758583 -6.185368,6.185368 c -0.350114,0.350114 -0.583524,0.816934 -0.641877,1.342107 -0.350114,0.291763 -0.525173,0.758583 -0.525173,1.225404 0,0.991993 0.758583,1.750574 1.750576,1.750574 0.46682,0 0.93364,-0.175057 1.283755,-0.525171 0.46682,-0.05835 0.93364,-0.291763 1.283756,-0.641879 l 6.1853673,-6.185367 0.758582,0.758583 c 0.1167,0.1167 0.291763,0.175057 0.408469,0.175057 0.1167,0 0.291761,-0.05835 0.408467,-0.175057 0.23341,-0.23341 0.23341,-0.583525 0,-0.816935 l -0.758583,-0.758583 3.092684,-3.092684 c 0.875287,-0.875287 0.875287,-2.275748 0,-3.151036 z M -16.596912,24.001314 c -0.23341,0.233411 -0.46682,0.350115 -0.758582,0.291762 -0.23341,0 -0.408468,0.1167 -0.525173,0.291763 -0.05835,0.1167 -0.291763,0.23341 -0.46682,0.23341 -0.350116,0 -0.583526,-0.23341 -0.583526,-0.583524 0,-0.175059 0.1167,-0.408469 0.291763,-0.466821 0.175057,-0.1167 0.291763,-0.291763 0.291763,-0.525173 0,-0.291763 0.1167,-0.583525 0.291763,-0.758583 l 6.127015,-6.185367 1.517165,1.517166 z"
       id="path2"
       style="stroke-width:0.583526" /><path
       style="fill:#ffffff;fill-opacity:1;stroke:#ffffff;stroke-width:0.0324144;stroke-linejoin:bevel"
       d="m -18.512726,24.774122 c -0.06574,-0.01272 -0.183573,-0.09925 -0.261857,-0.192291 -0.207966,-0.247152 -0.16033,-0.537421 0.130342,-0.794239 0.255157,-0.225439 0.331461,-0.363635 0.33336,-0.603754 7.78e-4,-0.09837 0.04325,-0.270612 0.09439,-0.382768 0.05987,-0.131315 1.19549,-1.318702 3.189547,-3.334953 l 3.096568,-3.131033 0.74686,0.745431 0.746861,0.745431 -3.061313,3.063801 c -1.683722,1.685091 -3.168633,3.135578 -3.299801,3.223306 -0.173608,0.116111 -0.302735,0.159504 -0.474645,0.159504 -0.272267,0 -0.524819,0.113573 -0.611115,0.27482 -0.05488,0.102542 -0.367613,0.274615 -0.467492,0.257225 -0.0232,-0.004 -0.09597,-0.01776 -0.161708,-0.03048 z"
       id="path1997" /></g></svg>
